<mxfile host="Electron" modified="2023-12-23T12:23:00.764Z" agent="Mozilla/5.0 (Windows NT 10.0; Win64; x64) AppleWebKit/537.36 (KHTML, like Gecko) draw.io/21.2.8 Chrome/112.0.5615.165 Electron/24.2.0 Safari/537.36" etag="bV0pNQR9_HCB7dE7rnhc" version="21.2.8" type="device">
  <diagram name="Page-1" id="dcHpDls5n7T6bHSFafJn">
    <mxGraphModel dx="2133" dy="894" grid="1" gridSize="10" guides="1" tooltips="1" connect="1" arrows="1" fold="1" page="1" pageScale="1" pageWidth="827" pageHeight="1169" math="0" shadow="0">
      <root>
        <mxCell id="0" />
        <mxCell id="1" parent="0" />
        <mxCell id="KFg5yCWpTsRsXB4LwDKj-1" value="&lt;b&gt;&lt;font style=&quot;font-size: 14px;&quot; face=&quot;Verdana&quot;&gt;DataStream&lt;br&gt;ProcessFunction&lt;br&gt;&lt;/font&gt;&lt;/b&gt;" style="rounded=0;whiteSpace=wrap;html=1;fillColor=#ffe6cc;strokeColor=#161512;" vertex="1" parent="1">
          <mxGeometry x="256" y="350" width="180" height="60" as="geometry" />
        </mxCell>
        <mxCell id="KFg5yCWpTsRsXB4LwDKj-17" style="edgeStyle=orthogonalEdgeStyle;rounded=0;orthogonalLoop=1;jettySize=auto;html=1;exitX=0;exitY=0.25;exitDx=0;exitDy=0;entryX=1;entryY=0.25;entryDx=0;entryDy=0;" edge="1" parent="1" source="KFg5yCWpTsRsXB4LwDKj-2" target="KFg5yCWpTsRsXB4LwDKj-16">
          <mxGeometry relative="1" as="geometry" />
        </mxCell>
        <mxCell id="KFg5yCWpTsRsXB4LwDKj-2" value="&lt;b&gt;&lt;font style=&quot;font-size: 14px;&quot; face=&quot;Verdana&quot;&gt;KeyedStream&lt;br&gt;KeyedProcessFunction&lt;br&gt;&lt;/font&gt;&lt;/b&gt;" style="rounded=0;whiteSpace=wrap;html=1;fillColor=#dae8fc;strokeColor=#050505;" vertex="1" parent="1">
          <mxGeometry x="240" y="210" width="220" height="60" as="geometry" />
        </mxCell>
        <mxCell id="KFg5yCWpTsRsXB4LwDKj-6" value="" style="endArrow=classic;html=1;rounded=0;exitX=0.25;exitY=0;exitDx=0;exitDy=0;entryX=0.25;entryY=1;entryDx=0;entryDy=0;" edge="1" parent="1">
          <mxGeometry width="50" height="50" relative="1" as="geometry">
            <mxPoint x="331" y="350" as="sourcePoint" />
            <mxPoint x="331" y="270" as="targetPoint" />
          </mxGeometry>
        </mxCell>
        <mxCell id="KFg5yCWpTsRsXB4LwDKj-7" value="&lt;font face=&quot;Verdana&quot; style=&quot;font-size: 14px;&quot;&gt;keyBy()&lt;/font&gt;" style="text;html=1;align=center;verticalAlign=middle;resizable=0;points=[];autosize=1;strokeColor=none;fillColor=none;" vertex="1" parent="1">
          <mxGeometry x="259" y="300" width="80" height="30" as="geometry" />
        </mxCell>
        <mxCell id="KFg5yCWpTsRsXB4LwDKj-8" value="" style="endArrow=classic;html=1;rounded=0;exitX=0.56;exitY=1.06;exitDx=0;exitDy=0;exitPerimeter=0;" edge="1" parent="1">
          <mxGeometry width="50" height="50" relative="1" as="geometry">
            <mxPoint x="370.20000000000005" y="269.6" as="sourcePoint" />
            <mxPoint x="370" y="350" as="targetPoint" />
          </mxGeometry>
        </mxCell>
        <mxCell id="KFg5yCWpTsRsXB4LwDKj-10" value="&lt;b style=&quot;font-size: 14px;&quot;&gt;&lt;font style=&quot;font-size: 14px;&quot; face=&quot;Verdana&quot;&gt;AllWindowedStream&lt;br&gt;&lt;/font&gt;&lt;/b&gt;&lt;b style=&quot;font-size: 14px; font-family: Verdana; background-color: initial;&quot;&gt;ProcessAllWindowFunction&lt;/b&gt;&lt;b style=&quot;font-size: 14px;&quot;&gt;&lt;font style=&quot;font-size: 14px;&quot; face=&quot;Verdana&quot;&gt;&lt;br&gt;&lt;/font&gt;&lt;/b&gt;" style="rounded=0;whiteSpace=wrap;html=1;fillColor=#fff2cc;strokeColor=#171611;" vertex="1" parent="1">
          <mxGeometry x="566" y="350" width="250" height="60" as="geometry" />
        </mxCell>
        <mxCell id="KFg5yCWpTsRsXB4LwDKj-13" value="" style="endArrow=classic;html=1;rounded=0;exitX=1;exitY=0.25;exitDx=0;exitDy=0;entryX=0;entryY=0.25;entryDx=0;entryDy=0;" edge="1" parent="1">
          <mxGeometry width="50" height="50" relative="1" as="geometry">
            <mxPoint x="436" y="368" as="sourcePoint" />
            <mxPoint x="566" y="368" as="targetPoint" />
          </mxGeometry>
        </mxCell>
        <mxCell id="KFg5yCWpTsRsXB4LwDKj-14" value="" style="endArrow=classic;html=1;rounded=0;exitX=0;exitY=0.75;exitDx=0;exitDy=0;entryX=1;entryY=0.75;entryDx=0;entryDy=0;" edge="1" parent="1">
          <mxGeometry width="50" height="50" relative="1" as="geometry">
            <mxPoint x="566" y="392" as="sourcePoint" />
            <mxPoint x="436" y="392" as="targetPoint" />
          </mxGeometry>
        </mxCell>
        <mxCell id="KFg5yCWpTsRsXB4LwDKj-15" value="&lt;font face=&quot;Verdana&quot; style=&quot;font-size: 14px;&quot;&gt;windowAll()&lt;/font&gt;" style="text;html=1;align=center;verticalAlign=middle;resizable=0;points=[];autosize=1;strokeColor=none;fillColor=none;" vertex="1" parent="1">
          <mxGeometry x="446" y="340" width="110" height="30" as="geometry" />
        </mxCell>
        <mxCell id="KFg5yCWpTsRsXB4LwDKj-18" style="edgeStyle=orthogonalEdgeStyle;rounded=0;orthogonalLoop=1;jettySize=auto;html=1;exitX=1;exitY=0.75;exitDx=0;exitDy=0;entryX=0;entryY=0.75;entryDx=0;entryDy=0;" edge="1" parent="1" source="KFg5yCWpTsRsXB4LwDKj-16" target="KFg5yCWpTsRsXB4LwDKj-2">
          <mxGeometry relative="1" as="geometry" />
        </mxCell>
        <mxCell id="KFg5yCWpTsRsXB4LwDKj-16" value="&lt;b&gt;&lt;font style=&quot;font-size: 14px;&quot; face=&quot;Verdana&quot;&gt;WindowedStream&lt;br&gt;ProcessWindowFunction&lt;br&gt;&lt;/font&gt;&lt;/b&gt;" style="rounded=0;whiteSpace=wrap;html=1;fillColor=#f5f5f5;strokeColor=#000000;fontColor=#333333;" vertex="1" parent="1">
          <mxGeometry x="-120" y="210" width="227" height="60" as="geometry" />
        </mxCell>
        <mxCell id="KFg5yCWpTsRsXB4LwDKj-19" value="&lt;font face=&quot;Verdana&quot; style=&quot;font-size: 14px;&quot;&gt;window()&lt;/font&gt;" style="text;html=1;align=center;verticalAlign=middle;resizable=0;points=[];autosize=1;strokeColor=none;fillColor=none;" vertex="1" parent="1">
          <mxGeometry x="128" y="195" width="90" height="30" as="geometry" />
        </mxCell>
        <mxCell id="KFg5yCWpTsRsXB4LwDKj-29" style="edgeStyle=orthogonalEdgeStyle;rounded=0;orthogonalLoop=1;jettySize=auto;html=1;exitX=0;exitY=0.5;exitDx=0;exitDy=0;entryX=1;entryY=0.5;entryDx=0;entryDy=0;" edge="1" parent="1" source="KFg5yCWpTsRsXB4LwDKj-21" target="KFg5yCWpTsRsXB4LwDKj-28">
          <mxGeometry relative="1" as="geometry" />
        </mxCell>
        <mxCell id="KFg5yCWpTsRsXB4LwDKj-21" value="&lt;b&gt;&lt;font style=&quot;font-size: 14px;&quot; face=&quot;Verdana&quot;&gt;JoinedStreams&lt;br&gt;ProcessJoinFunction&lt;br&gt;&lt;/font&gt;&lt;/b&gt;" style="rounded=0;whiteSpace=wrap;html=1;fillColor=#f8cecc;strokeColor=#241414;" vertex="1" parent="1">
          <mxGeometry x="229" y="491" width="211" height="60" as="geometry" />
        </mxCell>
        <mxCell id="KFg5yCWpTsRsXB4LwDKj-24" value="" style="endArrow=classic;html=1;rounded=0;exitX=0.56;exitY=1.06;exitDx=0;exitDy=0;exitPerimeter=0;" edge="1" parent="1">
          <mxGeometry width="50" height="50" relative="1" as="geometry">
            <mxPoint x="329.20000000000005" y="409.6" as="sourcePoint" />
            <mxPoint x="329" y="490" as="targetPoint" />
          </mxGeometry>
        </mxCell>
        <mxCell id="KFg5yCWpTsRsXB4LwDKj-25" value="" style="endArrow=classic;html=1;rounded=0;exitX=0.25;exitY=0;exitDx=0;exitDy=0;entryX=0.25;entryY=1;entryDx=0;entryDy=0;" edge="1" parent="1">
          <mxGeometry width="50" height="50" relative="1" as="geometry">
            <mxPoint x="367" y="489" as="sourcePoint" />
            <mxPoint x="367" y="409" as="targetPoint" />
          </mxGeometry>
        </mxCell>
        <mxCell id="KFg5yCWpTsRsXB4LwDKj-26" value="&lt;font face=&quot;Verdana&quot; style=&quot;font-size: 14px;&quot;&gt;join()&lt;/font&gt;" style="text;html=1;align=center;verticalAlign=middle;resizable=0;points=[];autosize=1;strokeColor=none;fillColor=none;" vertex="1" parent="1">
          <mxGeometry x="275" y="440" width="60" height="30" as="geometry" />
        </mxCell>
        <mxCell id="KFg5yCWpTsRsXB4LwDKj-28" value="&lt;b&gt;&lt;font style=&quot;font-size: 14px;&quot; face=&quot;Verdana&quot;&gt;BroadcastConnectedStream&lt;br&gt;BroadcastProcessFunction&lt;br&gt;Keyed&lt;/font&gt;&lt;/b&gt;&lt;b style=&quot;border-color: var(--border-color);&quot;&gt;&lt;font style=&quot;border-color: var(--border-color); font-size: 14px;&quot; face=&quot;Verdana&quot;&gt;BroadcastProcessFunction&lt;/font&gt;&lt;/b&gt;&lt;b&gt;&lt;font style=&quot;font-size: 14px;&quot; face=&quot;Verdana&quot;&gt;&lt;br&gt;&lt;/font&gt;&lt;/b&gt;" style="rounded=0;whiteSpace=wrap;html=1;fillColor=#b1ddf0;strokeColor=#161718;" vertex="1" parent="1">
          <mxGeometry x="-220" y="491" width="326" height="60" as="geometry" />
        </mxCell>
        <mxCell id="KFg5yCWpTsRsXB4LwDKj-30" value="&lt;font face=&quot;Verdana&quot; style=&quot;font-size: 14px;&quot;&gt;broadcast()&lt;/font&gt;" style="text;html=1;align=center;verticalAlign=middle;resizable=0;points=[];autosize=1;strokeColor=none;fillColor=none;" vertex="1" parent="1">
          <mxGeometry x="114" y="491" width="110" height="30" as="geometry" />
        </mxCell>
        <mxCell id="KFg5yCWpTsRsXB4LwDKj-31" value="" style="endArrow=classic;html=1;rounded=0;exitX=0.5;exitY=1;exitDx=0;exitDy=0;entryX=0;entryY=0.5;entryDx=0;entryDy=0;" edge="1" parent="1" source="KFg5yCWpTsRsXB4LwDKj-16" target="KFg5yCWpTsRsXB4LwDKj-1">
          <mxGeometry width="50" height="50" relative="1" as="geometry">
            <mxPoint x="220" y="380" as="sourcePoint" />
            <mxPoint x="270" y="330" as="targetPoint" />
          </mxGeometry>
        </mxCell>
        <mxCell id="KFg5yCWpTsRsXB4LwDKj-32" value="" style="endArrow=classic;html=1;rounded=0;exitX=0.5;exitY=0;exitDx=0;exitDy=0;entryX=0;entryY=0.5;entryDx=0;entryDy=0;" edge="1" parent="1" source="KFg5yCWpTsRsXB4LwDKj-28" target="KFg5yCWpTsRsXB4LwDKj-1">
          <mxGeometry width="50" height="50" relative="1" as="geometry">
            <mxPoint x="220" y="380" as="sourcePoint" />
            <mxPoint x="270" y="330" as="targetPoint" />
          </mxGeometry>
        </mxCell>
        <mxCell id="KFg5yCWpTsRsXB4LwDKj-33" value="&lt;b&gt;&lt;font style=&quot;font-size: 14px;&quot; face=&quot;Verdana&quot;&gt;ConnectedStreams&lt;br&gt;CoProcessFunction&lt;br&gt;&lt;/font&gt;&lt;/b&gt;" style="rounded=0;whiteSpace=wrap;html=1;fillColor=#bac8d3;strokeColor=#060b0f;" vertex="1" parent="1">
          <mxGeometry x="504" y="491" width="200" height="60" as="geometry" />
        </mxCell>
        <mxCell id="KFg5yCWpTsRsXB4LwDKj-34" value="" style="endArrow=classic;html=1;rounded=0;exitX=1;exitY=1;exitDx=0;exitDy=0;entryX=0.5;entryY=0;entryDx=0;entryDy=0;" edge="1" parent="1" source="KFg5yCWpTsRsXB4LwDKj-1" target="KFg5yCWpTsRsXB4LwDKj-33">
          <mxGeometry width="50" height="50" relative="1" as="geometry">
            <mxPoint x="390" y="400" as="sourcePoint" />
            <mxPoint x="440" y="350" as="targetPoint" />
          </mxGeometry>
        </mxCell>
        <mxCell id="KFg5yCWpTsRsXB4LwDKj-35" value="&lt;font face=&quot;Verdana&quot; style=&quot;font-size: 14px;&quot;&gt;connect()&lt;/font&gt;" style="text;html=1;align=center;verticalAlign=middle;resizable=0;points=[];autosize=1;strokeColor=none;fillColor=none;" vertex="1" parent="1">
          <mxGeometry x="493" y="420" width="90" height="30" as="geometry" />
        </mxCell>
        <mxCell id="KFg5yCWpTsRsXB4LwDKj-36" value="&lt;font face=&quot;Verdana&quot; style=&quot;font-size: 14px;&quot;&gt;connect()&lt;/font&gt;" style="text;html=1;align=center;verticalAlign=middle;resizable=0;points=[];autosize=1;strokeColor=none;fillColor=none;" vertex="1" parent="1">
          <mxGeometry x="126" y="521" width="90" height="30" as="geometry" />
        </mxCell>
      </root>
    </mxGraphModel>
  </diagram>
</mxfile>
